:FULLY-SPECIFIED
:FORCE-ALL-JOINTS-BE-3DOF
:DEGREES
713
root 5.08856 19.0009 6.77247 44.3407 -87.6348 -25.0721
lfemur -40.2349 3.61391 15.0956
ltibia 91.277 -0 0
lfoot 1.68297 -1.44806 0.286153
ltoes 28.1748 -0 0
rfemur -13.1068 -8.83897 5.37691
rtibia 36.6112 -0 0
rfoot 25.0027 4.50108 0.0314623
rtoes 4.53489 -0 0
lowerback 1.87236 0.273252 -1.47958
upperback -2.14183 0.229843 -1.94943
thorax -3.12098 0.117481 -1.12628
lowerneck -6.93541 -5.70551 -0.349592
upperneck 1.78135 -7.80819 4.27906
head 1.94589 -3.81401 1.12288
lclavicle -3.73211e-14 -1.11667e-15 -2.82704e-30
lhumerus 0.0234598 -26.0975 26.1126
lradius 67.3536 -0 0
lwrist 28.3699 0 0
lhand -23.2146 -5.18301 0.000233268
lfingers 7.12502 -0 0
lthumb 3.23587 24.7721 0.000224995
rclavicle -3.73211e-14 -1.11667e-15 -2.82704e-30
rhumerus -8.19578 -7.23108 -27.4617
rradius 97.8266 -0 0
rwrist -7.86827 0 0
rhand -33.8591 -38.0045 0.119984
rfingers 7.12502 -0 0
rthumb -7.04302 -67.8513 0.114182
714
root 5.05708 18.9618 7.07448 148.995 -88.2662 -129.455
lfemur -39.4887 2.71631 14.1809
ltibia 87.9565 -0 0
lfoot 1.25051 -1.87281 0.302869
ltoes 27.3985 -0 0
rfemur -13.8141 -9.83619 4.86529
rtibia 40.7596 -0 0
rfoot 25.1089 4.6911 0.0332975
rtoes 5.53615 -0 0
lowerback 1.82568 0.637519 -1.34901
upperback -2.15667 0.72384 -1.90021
thorax -3.09674 0.361928 -1.16644
lowerneck -6.97627 -5.80831 -0.384085
upperneck 1.60365 -7.93695 4.217
head 1.89649 -3.88397 1.1057
lclavicle -3.82614e-14 -3.04514e-15 -2.9919e-30
lhumerus -3.00692 -26.2045 27.787
lradius 66.4369 -0 0
lwrist 28.0468 0 0
lhand -23.2125 -5.11241 0.000246871
lfingers 7.12502 -0 0
lthumb 3.23791 24.8427 0.000238116
rclavicle -3.82614e-14 -3.04514e-15 -2.9919e-30
rhumerus -5.76503 -6.52084 -28.923
rradius 97.5313 -0 0
rwrist -7.83002 0 0
rhand -33.6581 -37.6215 0.126987
rfingers 7.12502 -0 0
rthumb -6.84898 -67.4737 0.120846
715
root 5.02487 18.9219 7.38337 178.796 -85.2667 -158.977
lfemur -38.7112 1.81077 13.234
ltibia 84.5603 -0 0
lfoot 0.808092 -2.30736 0.316648
ltoes 26.6046 -0 0
rfemur -14.5304 -10.8625 4.35333
rtibia 45.0025 -0 0
rfoot 25.2175 4.88545 0.0348101
rtoes 6.5602 -0 0
lowerback 1.77879 1.01019 -1.21575
upperback -2.17141 1.2291 -1.84999
thorax -3.07212 0.611962 -1.20741
lowerneck -7.018 -5.91349 -0.419294
upperneck 1.42199 -8.06883 4.15392
head 1.84598 -3.95555 1.08818
lclavicle -3.92231e-14 -5.01753e-15 -3.12776e-30
lhumerus -6.11035 -26.2315 29.5045
lradius 65.4994 -0 0
lwrist 27.7164 0 0
lhand -23.2103 -5.0402 0.000258082
lfingers 7.12502 -0 0
lthumb 3.24 24.9149 0.000248929
rclavicle -3.92231e-14 -5.01753e-15 -3.12776e-30
rhumerus -3.30207 -5.73173 -30.3827
rradius 97.2292 -0 0
rwrist -7.79089 0 0
rhand -33.4525 -37.2296 0.13276
rfingers 7.12502 -0 0
rthumb -6.65047 -67.0875 0.126339
716
root 4.9921 18.8813 7.6976 -174.843 -81.937 -165.054
lfemur -37.9053 0.90294 12.2586
ltibia 81.1053 -0 0
lfoot 0.357915 -2.74952 0.327222
ltoes 25.7969 -0 0
rfemur -15.2521 -11.9129 3.8441
rtibia 49.3189 -0 0
rfoot 25.3281 5.08318 0.0359707
rtoes 7.602 -0 0
lowerback 1.73196 1.38944 -1.08049
upperback -2.18596 1.74313 -1.79903
thorax -3.04726 0.866345 -1.24899
lowerneck -7.0604 -6.02051 -0.455041
upperneck 1.23727 -8.2032 4.09017
head 1.79462 -4.02838 1.07043
lclavicle -4.02015e-14 -7.02408e-15 -3.23201e-30
lhumerus -9.2666 -26.1734 31.2506
lradius 64.5456 -0 0
lwrist 27.3803 0 0
lhand -23.2081 -4.96673 0.000266685
lfingers 7.12502 -0 0
lthumb 3.24213 24.9883 0.000257227
rclavicle -4.02015e-14 -7.02408e-15 -3.23201e-30
rhumerus -0.82131 -4.86603 -31.8294
rradius 96.9219 -0 0
rwrist -7.75109 0 0
rhand -33.2432 -36.8311 0.137189
rfingers 7.12502 -0 0
rthumb -6.44848 -66.6945 0.130554
